<mxfile host="app.diagrams.net" modified="2024-02-26T11:25:47.636Z" agent="Mozilla/5.0 (Windows NT 10.0; Win64; x64) AppleWebKit/537.36 (KHTML, like Gecko) Chrome/122.0.0.0 Safari/537.36 Edg/122.0.0.0" etag="PcQAidrcwg8HgbOV7hmQ" version="23.1.6" type="github">
  <diagram name="第 1 页" id="18jE2-OYsjj3ddZ_5Q-x">
    <mxGraphModel dx="1803" dy="1145" grid="1" gridSize="10" guides="1" tooltips="1" connect="1" arrows="1" fold="1" page="1" pageScale="1" pageWidth="827" pageHeight="1169" math="0" shadow="0">
      <root>
        <mxCell id="0" />
        <mxCell id="1" parent="0" />
        <mxCell id="FMqed2UXQeRaltPKzV11-2" value="project" style="rounded=1;whiteSpace=wrap;html=1;strokeWidth=2;fillWeight=4;hachureGap=8;hachureAngle=45;fillColor=#1ba1e2;sketch=1;fontStyle=3;fontFamily=Comic Sans MS;fontSize=30;" vertex="1" parent="1">
          <mxGeometry x="310" y="180" width="210" height="90" as="geometry" />
        </mxCell>
        <mxCell id="FMqed2UXQeRaltPKzV11-4" value="Vue.js" style="rounded=1;whiteSpace=wrap;html=1;strokeWidth=2;fillWeight=4;hachureGap=8;hachureAngle=45;fillColor=#d5e8d4;sketch=1;fontStyle=3;fontFamily=Comic Sans MS;fontSize=30;strokeColor=#82b366;" vertex="1" parent="1">
          <mxGeometry x="30" y="340" width="210" height="90" as="geometry" />
        </mxCell>
        <mxCell id="FMqed2UXQeRaltPKzV11-5" value="SpringBoot" style="rounded=1;whiteSpace=wrap;html=1;strokeWidth=2;fillWeight=4;hachureGap=8;hachureAngle=45;fillColor=#f8cecc;sketch=1;fontStyle=3;fontFamily=Comic Sans MS;fontSize=30;strokeColor=#b85450;" vertex="1" parent="1">
          <mxGeometry x="309" y="480" width="210" height="90" as="geometry" />
        </mxCell>
        <mxCell id="FMqed2UXQeRaltPKzV11-6" value="PostgreSQL" style="rounded=1;whiteSpace=wrap;html=1;strokeWidth=2;fillWeight=4;hachureGap=8;hachureAngle=45;fillColor=#e1d5e7;sketch=1;fontStyle=3;fontFamily=Comic Sans MS;fontSize=30;strokeColor=#9673a6;" vertex="1" parent="1">
          <mxGeometry x="590" y="340" width="210" height="90" as="geometry" />
        </mxCell>
        <mxCell id="FMqed2UXQeRaltPKzV11-7" value="" style="endArrow=none;html=1;rounded=0;entryX=0.006;entryY=0.904;entryDx=0;entryDy=0;entryPerimeter=0;" edge="1" parent="1" target="FMqed2UXQeRaltPKzV11-2">
          <mxGeometry width="50" height="50" relative="1" as="geometry">
            <mxPoint x="230" y="340" as="sourcePoint" />
            <mxPoint x="250" y="240" as="targetPoint" />
            <Array as="points" />
          </mxGeometry>
        </mxCell>
        <mxCell id="FMqed2UXQeRaltPKzV11-8" value="" style="endArrow=none;html=1;rounded=0;entryX=0.5;entryY=1;entryDx=0;entryDy=0;exitX=0.5;exitY=0;exitDx=0;exitDy=0;" edge="1" parent="1" source="FMqed2UXQeRaltPKzV11-5" target="FMqed2UXQeRaltPKzV11-2">
          <mxGeometry width="50" height="50" relative="1" as="geometry">
            <mxPoint x="350" y="409" as="sourcePoint" />
            <mxPoint x="431" y="330" as="targetPoint" />
            <Array as="points" />
          </mxGeometry>
        </mxCell>
        <mxCell id="FMqed2UXQeRaltPKzV11-9" value="" style="endArrow=none;html=1;rounded=0;exitX=0;exitY=0;exitDx=0;exitDy=0;entryX=0.946;entryY=0.993;entryDx=0;entryDy=0;entryPerimeter=0;" edge="1" parent="1" source="FMqed2UXQeRaltPKzV11-6" target="FMqed2UXQeRaltPKzV11-2">
          <mxGeometry width="50" height="50" relative="1" as="geometry">
            <mxPoint x="439" y="349" as="sourcePoint" />
            <mxPoint x="510" y="260" as="targetPoint" />
            <Array as="points" />
          </mxGeometry>
        </mxCell>
      </root>
    </mxGraphModel>
  </diagram>
</mxfile>
